<svg xmlns="http://www.w3.org/2000/svg" width="512" height="512" viewBox="0 0 64 64"><g fill="#206db2"><path d="M28.154 14.479a1.996 1.996 0 0 0-2.825 0 1.995 1.995 0 0 0 0 2.824l14.46 14.463-14.473 14.47a1.999 1.999 0 0 0 2.826 2.826l15.866-15.865c.218-.22.394-.516.491-.811.24-.718.053-1.51-.481-2.045L28.154 14.479z"/><path d="M32.029.059C14.401.059.059 14.4.059 32.029S14.401 64 32.029 64 64 49.658 64 32.029 49.657.059 32.029.059zm0 59.945c-15.425 0-27.975-12.549-27.975-27.975S16.604 4.055 32.029 4.055 60.004 16.604 60.004 32.03s-12.55 27.974-27.975 27.974z"/></g></svg>